<svg xmlns="http://www.w3.org/2000/svg" viewBox="0 0 512 512"><linearGradient id="a" gradientUnits="userSpaceOnUse" x1="273.737" y1="2" x2="273.737" y2="469" gradientTransform="matrix(1 0 0 -1 0 514)"><stop offset="0" stop-color="#ffbef9"/><stop offset="0" stop-color="#fa697c"/><stop offset="0"/></linearGradient><path d="M225 420c-8.3 0-15 6.7-15 15s6.7 15 15 15h16.6l.3-.2c1.7-.9 3.7-.8 5.3.2h1.3c.6-.1 1.2-.2 1.7-.3.7-.4 1.5-.5 2.3-.5h.6l9.6-2.1c1.4-.4 2.8-.7 4.2-1 23.3-5.9 45.8-14.2 67.8-23.9.5-.8 1.3-1.4 2.3-1.8.1-.1.3-.2.4-.2H225z" fill="url(#a)"/><linearGradient id="b" gradientUnits="userSpaceOnUse" x1="225" y1="2" x2="225" y2="469" gradientTransform="matrix(1 0 0 -1 0 514)"><stop offset="0" stop-color="#ffbef9"/><stop offset="0" stop-color="#fa697c"/><stop offset="0"/></linearGradient><circle cx="225" cy="225" r="30" fill="url(#b)"/><linearGradient id="c" gradientUnits="userSpaceOnUse" x1="225" y1="2" x2="225" y2="469" gradientTransform="matrix(1 0 0 -1 0 514)"><stop offset="0" stop-color="#ffbef9"/><stop offset="0" stop-color="#fa697c"/><stop offset="0"/></linearGradient><path d="M300 330c0-17-5.7-32.6-15.2-45.2C297.4 294.3 313 300 330 300c41.4 0 75-33.6 75-75s-33.6-75-75-75c-17 0-32.6 5.7-45.2 15.2C294.3 152.6 300 137 300 120c0-41.4-33.6-75-75-75s-75 33.6-75 75c0 17 5.7 32.6 15.2 45.2C152.6 155.7 137 150 120 150c-41.4 0-75 33.6-75 75s33.6 75 75 75c17 0 32.6-5.7 45.2-15.2C155.7 297.4 150 313 150 330c0 41.4 33.6 75 75 75s75-33.6 75-75zM195 225c0-17-5.7-32.6-15.2-45.2C192.4 189.3 208 195 225 195c17 0 32.6-5.7 45.2-15.2C260.7 192.4 255 208 255 225s5.7 32.6 15.2 45.2C257.6 260.7 242 255 225 255s-32.6 5.7-45.2 15.2C189.3 257.6 195 242 195 225z" fill="url(#c)"/><linearGradient id="d" gradientUnits="userSpaceOnUse" x1="225" y1="64" x2="225" y2="514" gradientTransform="matrix(1 0 0 -1 0 514)"><stop offset="0" stop-color="#fa9f6f"/><stop offset="1" stop-color="#fa697c"/></linearGradient><path d="M384.1 65.9C341.6 23.4 285.1 0 225 0 164.9 0 108.4 23.4 65.9 65.9S0 164.9 0 225c0 60.1 23.4 116.6 65.9 159.1S164.9 450 225 450c13.2 0 26.3-1.1 39.1-3.4l2.4-.6c21.9-5.5 43.1-13.2 63.9-22.1l5.4-3c.3-.3.7-.5 1.1-.6 17.1-9.8 33-21.9 47.3-36.2 42.5-42.5 65.9-99 65.9-159.1-.1-60.1-23.5-116.6-66-159.1zM225 60c33.1 0 60 26.9 60 60s-26.9 60-60 60-60-26.9-60-60 26.9-60 60-60zm15 165c0 8.3-6.7 15-15 15s-15-6.7-15-15 6.7-15 15-15 15 6.7 15 15zm-120 60c-33.1 0-60-26.9-60-60s26.9-60 60-60 60 26.9 60 60-26.9 60-60 60zm105 105c-33.1 0-60-26.9-60-60s26.9-60 60-60 60 26.9 60 60-26.9 60-60 60zm105-105c-33.1 0-60-26.9-60-60s26.9-60 60-60 60 26.9 60 60-26.9 60-60 60z" fill="url(#d)"/></svg>