<svg xmlns="http://www.w3.org/2000/svg" width="512" height="512" viewBox="0 0 24 24"><path xmlns="http://www.w3.org/2000/svg" d="M11.937 13.674L8.652 12.3a.65.65 0 00-.902.601v4.99a.65.65 0 001.133.437l3.285-3.616a.652.652 0 00-.231-1.038z" fill="#fa9f6f" data-original="#2196f3"/><path xmlns="http://www.w3.org/2000/svg" d="M23.76.2a.75.75 0 00-.782-.149l-22.5 8.75a.75.75 0 00.005 1.4l17.75 6.75a.749.749 0 00.985-.481l4.75-15.5A.754.754 0 0023.76.2z" fill="#fa9f6f" data-original="#64b5f6"/><path xmlns="http://www.w3.org/2000/svg" d="M7.75 13L19 5l-8.417 9.333z" fill="#fa9f6f" data-original="#2196f3"/><path xmlns="http://www.w3.org/2000/svg" d="M18.5 17a.769.769 0 01-.267-.049l-17.75-6.75a.75.75 0 01-.004-1.4l22.5-8.75a.75.75 0 01.988.919l-4.75 15.5a.755.755 0 01-.717.53zM2.84 9.492l15.178 5.772L22.079 2.01z" fill="#2c2c2c" data-original="#000000"/><path xmlns="http://www.w3.org/2000/svg" d="M8.5 19a.753.753 0 01-.75-.75V12.5c0-.229.104-.444.282-.587L22.782.163c.325-.256.797-.205 1.055.119s.204.796-.119 1.055L9.25 12.861v3.448l2.481-2.73a.749.749 0 111.11 1.008l-3.786 4.167A.749.749 0 018.5 19z" fill="#2c2c2c" data-original="#000000"/><path xmlns="http://www.w3.org/2000/svg" d="M7.986 19.854a.751.751 0 01-.624-1.165c.294-.442.462-.766.471-.782a.75.75 0 011.335.685s-.199.39-.556.928a.752.752 0 01-.626.334zM2.807 22.61a.782.782 0 01-.196-.026c-.943-.256-1.634-.824-2.053-1.69a.751.751 0 011.352-.652c.229.477.567.752 1.094.896a.75.75 0 01-.197 1.472zm2.079-.005a.752.752 0 01-.232-1.464c.479-.154.976-.476 1.476-.954a.75.75 0 011.038 1.084c-.665.636-1.354 1.072-2.05 1.298a.757.757 0 01-.232.036zM.779 19.251a.75.75 0 01-.747-.701A16.438 16.438 0 010 17.5a.75.75 0 011.5 0c0 .337.009.654.028.952a.748.748 0 01-.699.797l-.05.002z" fill="#2c2c2c" data-original="#000000"/></svg>